<svg id="Layer_1" data-name="Layer 1" xmlns="http://www.w3.org/2000/svg" viewBox="0 0 153.3 174.94"><defs><style>.cls-1{fill:none;stroke:#000;stroke-miterlimit:10;}</style></defs><title>jelly3</title><path class="cls-1" d="M90,57.12a20.36,20.36,0,0,1,1.6-4.38c9-17.57,48.66-5.11,62.5.19,12.8,4.92,24.53,14.06,29.74,26.75s2.5,29-8.36,37.33c-10.67,8.21-13.34,10.68-6.38,22.32a56,56,0,0,1,8,34.55A55.06,55.06,0,0,1,155.3,212c-6.22,4.58-14.87,7.77-21.48,3.79-3.55-2.14-5.75-5.93-7.35-9.75-5.3-12.54-5.55-25.6-3.9-38.8.62-4.95.07-10.69-3.88-13.74-2.34-1.82-5.44-2.3-8.41-2.39-11.78-.32-22.94,4.7-34.32,7.79s-24.71,3.88-33.79-3.64a22.35,22.35,0,0,1,9.5-39.06c8.06-1.75,26.84,1,34.52-2s12.38-11.3,13.74-19.51S90,78.1,89.41,69.79A41,41,0,0,1,90,57.12Z" transform="translate(-33.61 -43.17)"/></svg>