<svg id="Layer_1" data-name="Layer 1" xmlns="http://www.w3.org/2000/svg" viewBox="0 0 326.79 284.37"><defs><style>.cls-1{fill:none;stroke:#000;stroke-miterlimit:10;}</style></defs><title>jelly1</title><path class="cls-1" d="M167.42,155.75c-4.26,15.64,7.14,31.41,20.27,40.91s28.8,15.82,39.75,27.78C244.51,243.1,246.22,271,244,296.21s-7.37,51-.69,75.4,30.5,46.67,55.1,40.78c23.29-5.58,34.43-31.53,52.07-47.72,8.28-7.6,18.21-13.14,28.2-18.29,4.92-2.53,10-5,15.49-5.62,7.17-.79,14.23,1.7,21.19,3.61,29.79,8.17,97.28-8,71-52.85-8.18-14-24.09-21.56-39.75-25.66s-32.06-5.6-47.16-11.44c-31.46-12.17-45.84-37.2-55.16-67.9-5.41-17.81-14.29-37.36-32.06-42.92-24.42-7.64-50.51,2-76.67-6.31C209,128.88,177,120.68,167.42,155.75Z" transform="translate(-166.01 -129.48)"/></svg>