<svg id="Layer_1" data-name="Layer 1" xmlns="http://www.w3.org/2000/svg" viewBox="0 0 224.94 264.05"><defs><style>.cls-1{fill:none;stroke:#000;stroke-miterlimit:10;}</style></defs><title>jelly2</title><path class="cls-1" d="M21.26,72.57c-4.19-2.26-9-3.28-12.92-6C-3,58.57-.57,40.64,6.5,28.63,19.17,7.13,48.2-7.51,69.59,5.33,90.68,18,92.74,48.55,110.29,65.79c11.75,11.53,28.81,15.53,45.08,18s33.22,4,47.54,12.1,25.24,25.13,20.34,40.84c-5.57,17.85-27.27,24.86-38.36,39.93-14.84,20.17-7.95,50.61-22.81,70.78-10.11,13.69-29.42,19.32-45.73,14.35-32.81-10-26.32-37.1-36.11-61.93-6.92-17.55-20-20.48-33.73-30.92C12.37,143,58.58,92.67,21.26,72.57Z" transform="translate(0 -0.03)"/></svg>